<mxfile host="Electron" modified="2024-03-05T12:33:22.420Z" agent="Mozilla/5.0 (Windows NT 10.0; Win64; x64) AppleWebKit/537.36 (KHTML, like Gecko) draw.io/23.1.5 Chrome/120.0.6099.109 Electron/28.1.0 Safari/537.36" etag="Tfcn19KzbgQ3WbcRRbX4" version="23.1.5" type="device">
  <diagram name="ページ1" id="YuJUD3v-lC4tBk_issCE">
    <mxGraphModel dx="757" dy="566" grid="1" gridSize="10" guides="1" tooltips="1" connect="1" arrows="1" fold="1" page="1" pageScale="1" pageWidth="827" pageHeight="1169" math="0" shadow="0">
      <root>
        <mxCell id="0" />
        <mxCell id="1" parent="0" />
        <mxCell id="edahv0hC9N-l4Pk8auLt-33" value="" style="rounded=0;whiteSpace=wrap;html=1;fillColor=none;" vertex="1" parent="1">
          <mxGeometry x="20" y="100" width="620" height="330" as="geometry" />
        </mxCell>
        <mxCell id="edahv0hC9N-l4Pk8auLt-30" value="" style="rounded=0;whiteSpace=wrap;html=1;fillColor=#bac8d3;strokeColor=#23445d;" vertex="1" parent="1">
          <mxGeometry x="180" y="110" width="450" height="310" as="geometry" />
        </mxCell>
        <mxCell id="edahv0hC9N-l4Pk8auLt-2" value="" style="ellipse;shape=cloud;whiteSpace=wrap;html=1;" vertex="1" parent="1">
          <mxGeometry x="20" y="240" width="120" height="80" as="geometry" />
        </mxCell>
        <mxCell id="edahv0hC9N-l4Pk8auLt-13" style="edgeStyle=orthogonalEdgeStyle;rounded=0;orthogonalLoop=1;jettySize=auto;html=1;entryX=1;entryY=0.75;entryDx=0;entryDy=0;endArrow=none;endFill=0;curved=0;" edge="1" parent="1" source="edahv0hC9N-l4Pk8auLt-3" target="edahv0hC9N-l4Pk8auLt-11">
          <mxGeometry relative="1" as="geometry">
            <Array as="points">
              <mxPoint x="290" y="260" />
              <mxPoint x="290" y="190" />
            </Array>
          </mxGeometry>
        </mxCell>
        <mxCell id="edahv0hC9N-l4Pk8auLt-3" value="ONU" style="rounded=0;whiteSpace=wrap;html=1;fontSize=10;" vertex="1" parent="1">
          <mxGeometry x="220" y="240" width="40" height="80" as="geometry" />
        </mxCell>
        <mxCell id="edahv0hC9N-l4Pk8auLt-4" style="edgeStyle=orthogonalEdgeStyle;rounded=0;orthogonalLoop=1;jettySize=auto;html=1;entryX=0.875;entryY=0.5;entryDx=0;entryDy=0;entryPerimeter=0;endArrow=none;endFill=0;" edge="1" parent="1" source="edahv0hC9N-l4Pk8auLt-3" target="edahv0hC9N-l4Pk8auLt-2">
          <mxGeometry relative="1" as="geometry" />
        </mxCell>
        <mxCell id="edahv0hC9N-l4Pk8auLt-6" style="edgeStyle=orthogonalEdgeStyle;rounded=0;orthogonalLoop=1;jettySize=auto;html=1;endArrow=none;endFill=0;curved=0;strokeColor=default;" edge="1" parent="1" source="edahv0hC9N-l4Pk8auLt-5">
          <mxGeometry relative="1" as="geometry">
            <mxPoint x="260" y="290" as="targetPoint" />
            <Array as="points">
              <mxPoint x="300" y="300" />
              <mxPoint x="300" y="280" />
              <mxPoint x="260" y="280" />
            </Array>
          </mxGeometry>
        </mxCell>
        <mxCell id="edahv0hC9N-l4Pk8auLt-20" style="edgeStyle=orthogonalEdgeStyle;rounded=0;orthogonalLoop=1;jettySize=auto;html=1;entryX=0.5;entryY=0;entryDx=0;entryDy=0;endArrow=none;endFill=0;" edge="1" parent="1" source="edahv0hC9N-l4Pk8auLt-5" target="edahv0hC9N-l4Pk8auLt-18">
          <mxGeometry relative="1" as="geometry">
            <Array as="points">
              <mxPoint x="420" y="340" />
            </Array>
          </mxGeometry>
        </mxCell>
        <mxCell id="edahv0hC9N-l4Pk8auLt-21" style="edgeStyle=orthogonalEdgeStyle;rounded=0;orthogonalLoop=1;jettySize=auto;html=1;endArrow=box;endFill=0;" edge="1" parent="1" source="edahv0hC9N-l4Pk8auLt-5">
          <mxGeometry relative="1" as="geometry">
            <mxPoint x="600" y="320" as="targetPoint" />
          </mxGeometry>
        </mxCell>
        <mxCell id="edahv0hC9N-l4Pk8auLt-5" value="" style="rounded=0;whiteSpace=wrap;html=1;horizontal=0;" vertex="1" parent="1">
          <mxGeometry x="320" y="280" width="40" height="80" as="geometry" />
        </mxCell>
        <mxCell id="edahv0hC9N-l4Pk8auLt-8" style="edgeStyle=orthogonalEdgeStyle;rounded=0;orthogonalLoop=1;jettySize=auto;html=1;endArrow=none;endFill=0;curved=0;" edge="1" parent="1" source="edahv0hC9N-l4Pk8auLt-7">
          <mxGeometry relative="1" as="geometry">
            <mxPoint x="260" y="270" as="targetPoint" />
            <Array as="points">
              <mxPoint x="300" y="220" />
              <mxPoint x="300" y="270" />
              <mxPoint x="260" y="270" />
            </Array>
          </mxGeometry>
        </mxCell>
        <mxCell id="edahv0hC9N-l4Pk8auLt-12" style="edgeStyle=orthogonalEdgeStyle;rounded=0;orthogonalLoop=1;jettySize=auto;html=1;entryX=1;entryY=0.5;entryDx=0;entryDy=0;endArrow=none;endFill=0;" edge="1" parent="1" source="edahv0hC9N-l4Pk8auLt-7" target="edahv0hC9N-l4Pk8auLt-11">
          <mxGeometry relative="1" as="geometry">
            <Array as="points">
              <mxPoint x="300" y="200" />
              <mxPoint x="300" y="170" />
              <mxPoint x="280" y="170" />
            </Array>
          </mxGeometry>
        </mxCell>
        <mxCell id="edahv0hC9N-l4Pk8auLt-7" value="" style="rounded=0;whiteSpace=wrap;html=1;horizontal=0;labelPosition=center;verticalLabelPosition=middle;align=center;verticalAlign=middle;direction=west;flipH=0;flipV=1;" vertex="1" parent="1">
          <mxGeometry x="320" y="160" width="40" height="80" as="geometry" />
        </mxCell>
        <mxCell id="edahv0hC9N-l4Pk8auLt-9" value="光電話" style="text;html=1;align=center;verticalAlign=middle;whiteSpace=wrap;rounded=0;horizontal=1;rotation=90;spacingLeft=0;direction=east;flipH=1;flipV=1;fontSize=10;" vertex="1" parent="1">
          <mxGeometry x="310" y="185" width="60" height="30" as="geometry" />
        </mxCell>
        <mxCell id="edahv0hC9N-l4Pk8auLt-10" value="スイッチ" style="text;html=1;align=center;verticalAlign=middle;whiteSpace=wrap;rounded=0;horizontal=1;rotation=90;spacingLeft=0;direction=east;flipH=1;flipV=1;fontSize=10;" vertex="1" parent="1">
          <mxGeometry x="310" y="305" width="60" height="30" as="geometry" />
        </mxCell>
        <mxCell id="edahv0hC9N-l4Pk8auLt-15" style="edgeStyle=orthogonalEdgeStyle;rounded=0;orthogonalLoop=1;jettySize=auto;html=1;exitX=0;exitY=0.5;exitDx=0;exitDy=0;entryX=1;entryY=0.5;entryDx=0;entryDy=0;endArrow=none;endFill=0;" edge="1" parent="1" source="edahv0hC9N-l4Pk8auLt-11" target="edahv0hC9N-l4Pk8auLt-14">
          <mxGeometry relative="1" as="geometry" />
        </mxCell>
        <mxCell id="edahv0hC9N-l4Pk8auLt-11" value="FAX&lt;br style=&quot;font-size: 10px;&quot;&gt;複合機" style="rounded=0;whiteSpace=wrap;html=1;fontSize=10;" vertex="1" parent="1">
          <mxGeometry x="240" y="160" width="40" height="40" as="geometry" />
        </mxCell>
        <mxCell id="edahv0hC9N-l4Pk8auLt-14" value="電話機" style="rounded=0;whiteSpace=wrap;html=1;fontSize=10;" vertex="1" parent="1">
          <mxGeometry x="200" y="160" width="20" height="40" as="geometry" />
        </mxCell>
        <mxCell id="edahv0hC9N-l4Pk8auLt-16" value="Internet" style="text;html=1;align=center;verticalAlign=middle;whiteSpace=wrap;rounded=0;fontSize=10;" vertex="1" parent="1">
          <mxGeometry x="50" y="265" width="60" height="30" as="geometry" />
        </mxCell>
        <mxCell id="edahv0hC9N-l4Pk8auLt-17" value="BTV光" style="text;html=1;align=left;verticalAlign=top;whiteSpace=wrap;rounded=0;fontSize=9;" vertex="1" parent="1">
          <mxGeometry x="140" y="280" width="40" height="20" as="geometry" />
        </mxCell>
        <mxCell id="edahv0hC9N-l4Pk8auLt-18" value="PC" style="rounded=0;whiteSpace=wrap;html=1;" vertex="1" parent="1">
          <mxGeometry x="400" y="360" width="40" height="40" as="geometry" />
        </mxCell>
        <mxCell id="edahv0hC9N-l4Pk8auLt-23" style="edgeStyle=orthogonalEdgeStyle;rounded=0;orthogonalLoop=1;jettySize=auto;html=1;endArrow=none;endFill=0;" edge="1" parent="1" source="edahv0hC9N-l4Pk8auLt-22">
          <mxGeometry relative="1" as="geometry">
            <mxPoint x="500" y="320.0000000000001" as="targetPoint" />
          </mxGeometry>
        </mxCell>
        <mxCell id="edahv0hC9N-l4Pk8auLt-22" value="TV" style="rounded=0;whiteSpace=wrap;html=1;" vertex="1" parent="1">
          <mxGeometry x="480" y="260" width="40" height="40" as="geometry" />
        </mxCell>
        <mxCell id="edahv0hC9N-l4Pk8auLt-25" style="edgeStyle=orthogonalEdgeStyle;rounded=0;orthogonalLoop=1;jettySize=auto;html=1;endArrow=none;endFill=0;" edge="1" parent="1" source="edahv0hC9N-l4Pk8auLt-24">
          <mxGeometry relative="1" as="geometry">
            <mxPoint x="500" y="320.0000000000001" as="targetPoint" />
          </mxGeometry>
        </mxCell>
        <mxCell id="edahv0hC9N-l4Pk8auLt-24" value="STB" style="rounded=0;whiteSpace=wrap;html=1;" vertex="1" parent="1">
          <mxGeometry x="480" y="340" width="40" height="40" as="geometry" />
        </mxCell>
        <mxCell id="edahv0hC9N-l4Pk8auLt-27" style="edgeStyle=orthogonalEdgeStyle;rounded=0;orthogonalLoop=1;jettySize=auto;html=1;endArrow=none;endFill=0;" edge="1" parent="1" source="edahv0hC9N-l4Pk8auLt-26">
          <mxGeometry relative="1" as="geometry">
            <mxPoint x="560" y="320.0000000000001" as="targetPoint" />
          </mxGeometry>
        </mxCell>
        <mxCell id="edahv0hC9N-l4Pk8auLt-26" value="PC" style="rounded=0;whiteSpace=wrap;html=1;" vertex="1" parent="1">
          <mxGeometry x="540" y="260" width="40" height="40" as="geometry" />
        </mxCell>
        <mxCell id="edahv0hC9N-l4Pk8auLt-28" value="" style="rounded=0;whiteSpace=wrap;html=1;fillColor=none;strokeWidth=2;" vertex="1" parent="1">
          <mxGeometry x="460" y="230" width="160" height="180" as="geometry" />
        </mxCell>
        <mxCell id="edahv0hC9N-l4Pk8auLt-29" value="" style="rounded=0;whiteSpace=wrap;html=1;fillColor=none;strokeWidth=2;perimeterSpacing=0;" vertex="1" parent="1">
          <mxGeometry x="190" y="130" width="260" height="280" as="geometry" />
        </mxCell>
        <mxCell id="edahv0hC9N-l4Pk8auLt-31" value="ConoHa&lt;br style=&quot;font-size: 10px;&quot;&gt;VPS" style="rounded=0;whiteSpace=wrap;html=1;fontSize=10;" vertex="1" parent="1">
          <mxGeometry x="40" y="120" width="40" height="80" as="geometry" />
        </mxCell>
        <mxCell id="edahv0hC9N-l4Pk8auLt-32" style="edgeStyle=orthogonalEdgeStyle;rounded=0;orthogonalLoop=1;jettySize=auto;html=1;entryX=0.5;entryY=0.125;entryDx=0;entryDy=0;entryPerimeter=0;endArrow=none;endFill=0;" edge="1" parent="1" source="edahv0hC9N-l4Pk8auLt-31" target="edahv0hC9N-l4Pk8auLt-2">
          <mxGeometry relative="1" as="geometry" />
        </mxCell>
        <mxCell id="edahv0hC9N-l4Pk8auLt-35" value="2022年10月中旬" style="text;html=1;align=left;verticalAlign=top;whiteSpace=wrap;rounded=0;fontSize=9;" vertex="1" parent="1">
          <mxGeometry x="20" y="410" width="70" height="20" as="geometry" />
        </mxCell>
      </root>
    </mxGraphModel>
  </diagram>
</mxfile>
